<?xml version="1.0" encoding="utf-8"?>
<!-- Generator: Adobe Illustrator 25.2.3, SVG Export Plug-In . SVG Version: 6.00 Build 0)  -->
<svg version="1.1" id="Capa_2" xmlns="http://www.w3.org/2000/svg" xmlns:xlink="http://www.w3.org/1999/xlink" x="0px" y="0px"
	 viewBox="0 0 815.9 693.3" style="enable-background:new 0 0 815.9 693.3;" xml:space="preserve">
<style type="text/css">
	.st0{fill:#210066;}
	.st1{fill:none;}
</style>
<path class="st0" d="M475.8,69.8c4.4,13.3-2.8,27.6-16,32l0,0c-33.7,11-57,41.8-58.5,77.2c-0.1,13.9-11.3,25.1-25.2,25.1H376
	c-13.9-0.1-25.1-11.3-25.1-25.2C352.5,121.8,389.7,71.9,444,54c13.1-4.5,27.3,2.5,31.7,15.5C475.8,69.6,475.8,69.7,475.8,69.8z
	 M427.9,170.8c-4.3,13.1,2.7,27.3,15.7,31.7c2.6,1,5.4,1.5,8.2,1.4c10.7,0,20.2-6.8,23.9-16.8c12.6-28.9,43.8-44.8,74.6-38.1
	c13.9,1.4,26.3-8.8,27.7-22.7c1.4-13.9-8.8-26.3-22.7-27.7l0,0C501.1,89.8,448.1,119.8,427.9,170.8z M350.8,229.3
	c17.8,0,35.2,4.8,50.5,13.8c48-28.1,109.7-11.9,137.8,36.1c28.1,48,11.9,109.7-36.1,137.8c-0.5,0.3-1.1,0.6-1.6,0.9
	c0.6,4.4,0.8,8.8,0.8,13.3c0,55.7-45.2,100.9-101,100.9c-55.7,0-100.9-45.2-100.9-100.9c0-4.4,0.3-8.9,0.8-13.3
	c-48.5-27.2-65.7-88.6-38.5-137.1c0,0,0,0,0-0.1C280.7,249,314.3,229.3,350.8,229.3z M384.5,292.9c-20.4-18.7-52.1-17.3-70.8,3.1
	c-8.5,9.2-13.2,21.3-13.2,33.8c0,22.9,15.3,42.9,37.4,48.9c13.4,3.6,21.3,17.4,17.7,30.8c0,0.1,0,0.1-0.1,0.2c-0.3,1-0.6,1.8-1,2.9
	c-10.6,25.8,1.7,55.2,27.4,65.8c25.8,10.6,55.2-1.7,65.8-27.4c5.1-12.3,5.1-26.1,0-38.4c-5.2-12.9,1.1-27.6,14-32.9
	c0.9-0.4,1.9-0.8,2.9-1c26.8-7.2,42.7-34.8,35.4-61.6c-7.2-26.6-34.5-42.5-61.1-35.5c-7.8,2.1-14.9,6-20.9,11.3
	C408.4,301.4,394,301.4,384.5,292.9z M679,229.3c-0.1,33.1-21.7,62.3-53.4,72c3.1,26.3,4.1,52.9,3,79.4
	c0,125.4-101.7,227.3-227.3,227.3S174,506.2,174,380.7c-1.2-26.5-0.1-53.1,3.2-79.4c-39.9-12.1-62.5-54.3-50.4-94.2
	s54.3-62.5,94.2-50.4c9.4,2.9,18.1,7.5,25.8,13.7c12.5-11.7,26.2-22.1,40.9-30.8c12.1-7,27.6-2.9,34.6,9.2c7,12.1,2.9,27.6-9.2,34.6
	c-54.2,32-87.8,90.1-88.4,153.1v44.3c0,97.6,79.2,176.8,176.8,176.8s176.8-79.2,176.8-176.8v-44.3c-0.2-43-15.9-84.5-44.2-116.9
	c-9.2-10.5-8.2-26.4,2.2-35.7c3.3-2.7,7.1-4.5,11.2-5.4c27.9-31,75.7-33.6,106.8-5.7C670.1,187.4,679,207.8,679,229.3L679,229.3z
	 M213.8,208.7c-11.5-7.9-27.2-5-35.2,6.5s-5,27.2,6.5,35.2c1.6,1.1,3.4,2,5.2,2.7C196.8,237.6,204.6,222.8,213.8,208.7z
	 M628.5,229.3c0-13.9-11.4-25.2-25.3-25.2c-5.1,0-10.1,1.6-14.3,4.5c9.4,13.9,17.2,28.7,23.5,44.2
	C622.1,249.1,628.6,239.7,628.5,229.3L628.5,229.3z"/>
<path class="st0" d="M52.9,538.7c0-48.9,5.8-84.3,5.8-129.4c0-26.3-12.1-52.3-57.9-52.7v-35c45.6-0.4,57.9-26.4,57.9-51.8
	c0-46-5.8-81.4-5.8-130.3c0-69.7,25.2-89.6,78.6-89.6h30v31.5h-17.6c-36.4,0-45.9,17.9-45.9,61.3c0,40.6,3.6,76.1,3.6,122
	c0,43.6-10.9,65-40.2,73.1v2.7c29.3,8.1,40.2,30.3,40.2,73.1c0,45.9-3.6,81.2-3.6,122c0,43.5,9.5,61.3,45.9,61.3h17.6v31.5h-30
	C78.1,628.3,52.9,608.3,52.9,538.7z"/>
<path class="st0" d="M654.2,596.7h17.6c36.4,0,45.9-17.9,45.9-61.3c0-40.6-3.6-76.1-3.6-122c0-42.8,10.9-65,40.2-73.1v-2.7
	c-29.3-8.1-40.2-29.5-40.2-73.1c0-45.9,3.6-81.2,3.6-122c0-43.5-9.5-61.3-45.9-61.3h-17.6V49.8h30.2c53.4,0,78.6,20,78.6,89.6
	c0,48.9-5.8,84.3-5.8,130.3c0,25.5,12.1,51.4,57.9,51.8v35c-45.6,0.4-57.9,26.4-57.9,52.7c0,45.2,5.8,80.5,5.8,129.4
	c0,69.7-25.2,89.6-78.6,89.6h-30v-31.5h-0.2V596.7z"/>
<rect x="-77.9" y="490.4" class="st1" width="1" height="4"/>
</svg>
