<?xml version="1.0" encoding="utf-8"?>
<!-- Generator: Adobe Illustrator 25.2.3, SVG Export Plug-In . SVG Version: 6.00 Build 0)  -->
<svg version="1.1" id="Capa_2" xmlns="http://www.w3.org/2000/svg" xmlns:xlink="http://www.w3.org/1999/xlink" x="0px" y="0px"
	 viewBox="0 0 815.9 693.3" style="enable-background:new 0 0 815.9 693.3;" xml:space="preserve">
<style type="text/css">
	.st0{fill:#210066;}
	.st1{fill:none;}
</style>
<path class="st0" d="M460.5,54.1c4,12.1-2.5,25.2-14.7,29.3l0,0c-30.8,10.1-52.1,38.2-53.5,70.5c-0.1,12.7-10.4,22.9-23,23h-0.1
	c-12.7-0.1-22.9-10.4-23-23c1.4-52.2,35.5-97.9,85.1-114.2c11.9-4.1,24.9,2.3,29,14.2C460.4,53.9,460.4,54,460.5,54.1z M416.6,146.4
	c-4,12,2.4,24.9,14.4,29c2.4,0.9,4.9,1.3,7.5,1.3c9.8,0,18.5-6.2,21.8-15.4c11.5-26.4,40.1-41,68.2-34.8c12.7,1.3,24-8,25.3-20.7
	c1.3-12.7-8-24-20.7-25.3l0,0C483.6,72.4,435.1,99.8,416.6,146.4z M346.2,199.9c16.2,0,32.2,4.4,46.2,12.6
	c43.9-25.7,100.3-10.9,126,33c25.7,43.9,10.9,100.3-33,126c-0.5,0.3-1,0.6-1.5,0.8c0.5,4,0.8,8.1,0.7,12.1c0,51-41.3,92.3-92.3,92.3
	c-50.9,0-92.2-41.3-92.3-92.3c0-4.1,0.3-8.1,0.7-12.1c-44.3-24.9-60.1-81-35.2-125.4c0,0,0,0,0-0.1C282,217.9,312.8,200,346.2,199.9
	z M376.9,258.1c-18.7-17.1-47.7-15.8-64.8,2.8c-7.7,8.4-12,19.5-12,30.9c0,20.9,14,39.2,34.2,44.7c12.3,3.3,19.5,15.9,16.2,28.2
	c0,0.1,0,0.1-0.1,0.2c-0.3,0.9-0.6,1.7-0.9,2.6c-9.7,23.6,1.5,50.5,25.1,60.2c23.6,9.7,50.5-1.5,60.2-25.1c4.6-11.2,4.6-23.9,0-35.1
	c-4.7-11.8,1-25.2,12.8-30c0.8-0.4,1.7-0.7,2.6-0.9c24.5-6.6,39-31.8,32.4-56.3c-6.6-24.3-31.5-38.8-55.9-32.5
	c-7.1,1.9-13.7,5.4-19.1,10.4C398.8,265.8,385.7,265.8,376.9,258.1z M646.2,199.9c-0.1,30.3-19.9,56.9-48.8,65.8
	c2.9,24.1,3.8,48.4,2.7,72.6c0,114.7-92.9,207.8-207.8,207.8s-207.8-92.9-207.8-207.7c-1.1-24.2-0.1-48.5,2.9-72.6
	c-36.5-11.1-57.1-49.6-46-86.1s49.6-57.1,86.1-46c8.6,2.6,16.6,6.9,23.6,12.5c11.4-10.7,24-20.2,37.4-28.2
	c11.1-6.4,25.2-2.7,31.6,8.4s2.7,25.2-8.4,31.6c-49.6,29.3-80.2,82.4-80.8,140v40.5c0,89.2,72.4,161.6,161.6,161.6
	s161.6-72.4,161.6-161.6v-40.5c-0.2-39.3-14.5-77.2-40.4-106.8c-8.4-9.6-7.5-24.2,2.1-32.7c3-2.4,6.5-4.1,10.3-4.9
	c25.5-28.4,69.2-30.7,97.6-5.2C638.1,161.6,646.2,180.3,646.2,199.9L646.2,199.9z M220.9,181.1c-10.5-7.2-24.9-4.6-32.1,5.9
	s-4.6,24.9,5.9,32.1c1.5,1,3.1,1.9,4.7,2.5C205.3,207.5,212.5,193.9,220.9,181.1z M600.1,199.9c0-12.8-10.4-23.1-23.1-23
	c-4.7,0-9.2,1.4-13.1,4.1c8.6,12.7,15.7,26.2,21.5,40.4C594.2,218,600.1,209.4,600.1,199.9L600.1,199.9z"/>
<path class="st0" d="M73.8,482.8c0-44.7,5.3-77.1,5.3-118.3c0-24.1-11.1-47.8-52.9-48.1v-32c41.7-0.4,52.9-24.2,52.9-47.4
	c0-42.1-5.3-74.5-5.3-119.2c0-63.7,23-81.9,71.9-81.9h27.4v28.8h-16c-33.3,0-42,16.3-42,56.1c0,37.1,3.3,69.6,3.3,111.5
	c0,39.8-10,59.4-36.8,66.8v2.4c26.8,7.4,36.8,27.7,36.8,66.8c0,42-3.3,74.3-3.3,111.5c0,39.8,8.7,56.1,42,56.1h16v28.8h-27.4
	C96.8,564.7,73.8,546.4,73.8,482.8z"/>
<path class="st0" d="M623.6,535.8h16c33.3,0,42-16.3,42-56.1c0-37.1-3.3-69.6-3.3-111.5c0-39.1,10-59.4,36.8-66.8V299
	c-26.8-7.4-36.8-27-36.8-66.8c0-42,3.3-74.3,3.3-111.5c0-39.8-8.7-56.1-42-56.1h-16V35.8h27.6c48.8,0,71.9,18.3,71.9,81.9
	c0,44.7-5.3,77.1-5.3,119.2c0,23.3,11.1,47,52.9,47.4v32c-41.7,0.4-52.9,24.2-52.9,48.1c0,41.3,5.3,73.6,5.3,118.3
	c0,63.7-23,81.9-71.9,81.9h-27.4v-28.8L623.6,535.8L623.6,535.8z"/>
<path class="st0" d="M60.1,585.3h22.6c4.2,18,8.4,35.9,12.7,54.2c0.7-2.8,1.4-5,2-7.4c4-15,7.9-30,11.9-45c0.4-1.4,0.9-1.9,2.4-1.8
	c5.9,0.1,11.7,0,17.7,0c4.2,17.5,8.4,35,12.6,52.4c0.1,0,0.2,0,0.3,0.1c0.2-0.5,0.4-1.1,0.5-1.7c4.3-16.5,8.6-33.1,12.9-49.6
	c0.2-0.7,0.3-1.3,1.2-1.2h21.4c-0.6,2-1,3.9-1.6,5.7c-8.4,29.7-16.8,59.3-25.2,88.9c-0.2,0.5-0.7,1.2-1.2,1.2
	c-6.3,0.1-12.4,0.1-18.8,0.1c-4.2-17.5-8.4-35.1-12.6-52.5h-0.3c-0.7,2.2-1.2,4.5-1.9,6.7c-4,14.8-8,29.6-12,44.4
	c-0.3,1.1-0.7,1.5-1.9,1.5c-6.1-0.1-12.1,0-18.3,0c-0.9-3.5-1.8-6.9-2.6-10.4c-7.1-27.8-14.1-55.6-21.2-83.4
	c-0.1-0.5-0.3-1.1-0.6-1.6C60,585.8,60.1,585.5,60.1,585.3z"/>
<path class="st0" d="M728.5,660.1c-0.3,1.4-0.5,2.8-0.7,4.2c-2.4,9.5-9,14.9-18.2,17.1c-10.9,2.7-22.5,0.7-31.9-5.5
	c-0.4-0.3-0.6-0.8-0.6-1.3c1.9-6,3.8-11.9,5.9-18c2,1.3,3.8,2.6,5.8,3.7c3.7,2.4,8.1,3.6,12.5,3.5c1.2,0,2.5-0.2,3.6-0.7
	c2.9-1.1,3.4-4.6,0.8-6.3c-2.1-1.3-4.2-2.4-6.5-3.2c-5-2-9.8-4.4-13.7-8.3c-3.7-3.6-5.8-8.5-5.9-13.7c0.1-0.8-0.4-1.5-1.2-1.6
	c0,0,0,0,0,0c-1.6-0.3-3.1-0.8-4.7-1c-4.2-0.6-7.4,1.2-9.4,4.9c-1.5,2.6-2.2,5.6-2.2,8.6v38.6h-21.6v-71.5h19.7
	c0.1,0.8,0.1,1.7,0.2,2.6c0.3-0.2,0.6-0.3,0.9-0.5c5.5-3.7,12.5-4.6,18.8-2.4c1,0.3,1.2,0.7,1.2,1.8c-0.1,3.2,0,6.3,0,9.5
	c0,0.5,0.1,0.9,0.1,1.3c1.8-2.2,3.3-4.7,5.2-6.6c5.7-5.4,12.8-7.2,20.4-7.1c7.3,0.1,14.4,2.4,20.3,6.6c-2.1,5.9-4,11.8-6.2,17.9
	c-2-1.1-3.7-2.1-5.6-3.2c-3.2-1.8-6.4-3.1-10.2-2.9c-1.2,0-2.3,0.3-3.4,0.9c-1.3,0.6-1.9,2.1-1.3,3.4c0.2,0.5,0.6,0.9,1.1,1.2
	c2.2,1.3,4.5,2.4,6.9,3.5c4.3,1.8,8.5,3.6,12,6.6c4.4,3.6,7.1,8.8,7.5,14.5c0,0.4,0.1,0.7,0.3,1V660.1z"/>
<path class="st0" d="M258.6,582.1c0,0.3,0,0.7,0,1c-3.2,12.9-7.9,25.4-13.9,37.2c-0.8,1.9-2.7,3.1-4.8,3.1
	c-3.7,0.3-7.4,0.9-10.9,1.4c0.9,3.5,2,6.8,2.6,10.3c1,5.5,0.8,11.1-0.7,16.4c-0.3,0.9-0.7,0.9-1.5,0.9h-40c0.9,4,2.9,7,6.3,8.9
	c3.6,2.1,7.6,2.2,11.6,2.1c5.3-0.3,10.5-1.6,15.3-4c0.8-0.4,1.7-0.8,2.6-1.1c0.7,3,1.5,6,2.1,8.9c0.7,2.7,1.3,5.3,1.9,8
	c0.2,0.7,0.3,1.2-0.6,1.7c-11.4,5.6-23.4,7.5-35.7,4.5c-13.8-3.4-21.7-12.7-24.4-26.4c-2.1-10.9-0.7-21.6,5.2-31.3
	c10.6-17.7,32.8-18.6,44.4-11c3.2,2.1,5.9,4.8,8,7.9c0.1,0.2,0.3,0.3,0.7,0.7c1.5-4.7,3.1-9.1,4.1-13.5c1.7-7.1,3.1-14.4,4.5-21.6
	c0-0.9,0.7-1.7,1.7-1.7c0,0,0,0,0,0c6.8-0.7,13.6-1.5,20.3-2.2c0.3,0,0.5-0.2,0.7-0.3C258.4,582.1,258.5,582.1,258.6,582.1z
	 M210.4,634.1c-0.7-4.5-4.1-7.4-8.9-7.6c-5.1-0.2-9.8,3.2-10.7,7.6H210.4z"/>
<path class="st0" d="M280.6,681.1h-21.5v-93.9c3.3-0.6,6.7-1.3,10.1-1.7c7.6-1,15.3-1.2,23-0.7c7.3,0.6,14.3,2.2,20.2,6.9
	c5.7,4.4,9.2,11.1,9.6,18.3c0.9,10.2-2.5,18.7-10.7,25.1c-0.2,0.1-0.4,0.3-0.6,0.4c6.4,6.8,7.6,15.7,9.7,24.2
	c0.6,2.1,1.1,4.3,1.6,6.4c1.2,4.6,3,8.9,5.5,12.9c0.3,0.5,0.5,1,0.7,1.5v0.5c-0.4,0-0.7,0.1-1.1,0.1h-20.3c-0.8,0.1-1.6-0.4-2-1.1
	c-2.7-4.4-3.6-9.4-4.9-14.3c-1.1-4.5-2.1-9-3.4-13.3c-1.9-6.1-4.5-7.9-10.8-8.3c-1.7-0.1-3.3,0-5.2,0
	C280.6,656.5,280.6,668.8,280.6,681.1z M280.6,625.2c3.3,0,6.3,0.2,9.2,0c2.6-0.2,5-1.1,7.1-2.6c3.5-2.7,4.3-6.3,3.8-10.5
	c-0.5-3.7-2.7-6.1-6.2-7.3c-4.2-1.5-8.7-1.4-13.1-1.1c-0.4,0-0.8,0.8-0.8,1.2c-0.1,3,0,5.9,0,8.9
	C280.6,617.6,280.6,621.4,280.6,625.2z"/>
<path class="st0" d="M566.4,645.5c0.1-8.1,1.9-15.8,6.5-22.5c7.5-10.6,18-15.2,30.7-14.8c17,0.5,30,12.1,32.5,29
	c1.2,7.7,1,15.4-1.9,22.8c-4.9,12.9-14.6,20.1-28,22.1c-10.7,1.7-20.4-0.9-28.6-8.4c-6.3-5.9-9.7-13.3-10.8-21.7
	C566.7,649.8,566.6,647.7,566.4,645.5z M615.2,645.4c0-4.7-1.2-9.3-3.5-13.3c-4.4-7.1-15.9-7.3-20.2,0.1c-2,3.6-3.2,7.6-3.4,11.7
	c-0.3,5,0.5,9.9,3.2,14.3c3.4,5.6,10.8,7.5,16.4,4c1.4-0.8,2.6-2,3.6-3.3C614.2,655,615.1,650.3,615.2,645.4z"/>
<path class="st0" d="M441.3,609.6h21.3c0.5,23.8-0.6,47.6,0.8,71.5h-20c-0.1-0.9-0.2-2-0.3-3.1c-1.7,0.8-3.2,1.7-4.9,2.3
	c-6.6,2.8-13.9,3-20.6,0.7c-9.5-3.3-14.2-10.6-16-20.1c-0.6-3.4-0.9-6.8-0.9-10.2c-0.1-13.1,0-26.2,0-39.3v-2h21.5v1.9
	c0,12.4-0.1,24.7,0.1,37.1c0,2.9,0.4,5.8,1,8.6c1.3,5.1,4.9,6.9,10,5.6s8-5.5,8-11.5v-39.8C441.3,610.9,441.3,610.3,441.3,609.6z"/>
<path class="st0" d="M470.4,681.1v-71.5h19.7c0.1,0.9,0.2,1.9,0.3,3.1c0.7-0.4,1.1-0.7,1.7-0.9c10.4-5.8,23.2-4.7,31.7,2.9
	c5.1,4.5,7.7,10.5,8.7,17.1c0.4,2.6,0.6,5.2,0.6,7.8c0.1,13.2,0,26.4,0,39.6v1.9h-21.4v-41c0-1.8-0.2-3.6-0.7-5.4
	c-1.7-7.3-9.5-9.6-15-4.5c-2.7,2.4-4.2,5.9-4.1,9.5V681C485,681.1,478,681.1,470.4,681.1z"/>
<path class="st0" d="M344.7,678.8c1.2-6.5,2.3-13.1,3.5-19.8c2,0.8,3.7,1.7,5.5,2.4c3.6,1.5,7.6,1.9,11.4,1.1
	c2.7-0.4,4.8-2.5,5.3-5.1c0.8-3.2,1.2-6.4,1.3-9.6c0.1-20.2,0.1-40.3,0.1-60.4v-2h21.5c0,0.6,0.1,1.1,0.1,1.7v61.2
	c0,7.2-1,14.3-4.6,20.7c-4.4,7.9-11.5,12-20.2,13.3c-7.9,1.1-15.9,0.1-23.2-3.1C345.1,679,344.9,678.9,344.7,678.8z"/>
<path class="st0" d="M553.8,609.5h8.8v71.6h-21.1v-71.6h8.5c-3.5-1-6.3-2.6-8.2-5.8c-1.8-3-2.3-6.6-1.3-10c1.6-5.8,6.9-9.1,13.1-8.6
	c5.7,0.7,10.1,5.4,10.5,11.1C564.5,602.9,560.8,607.7,553.8,609.5z"/>
<rect x="-77.9" y="490.4" class="st1" width="1" height="4"/>
</svg>
