<svg width="100" height="72" viewBox="0 0 100 72" fill="none" xmlns="http://www.w3.org/2000/svg">
<path d="M59.3805 2.48522C59.9292 4.12439 59.0443 5.90456 57.3805 6.46858C53.1682 7.84336 50.2655 11.6681 50.0708 16.0745C50.0531 17.8017 48.6549 19.1942 46.9204 19.1942H46.9027C45.1682 19.1765 43.7699 17.7841 43.7699 16.0568C43.9646 8.95377 48.6195 2.73198 55.3982 0.511173C57.0266 -0.0528412 58.8142 0.846057 59.3805 2.48522ZM53.3805 15.0522C52.8319 16.6737 53.7168 18.4363 55.3451 19.0003C55.6814 19.1237 56.0354 19.1765 56.3717 19.1765C57.7168 19.1765 58.9027 18.3305 59.3628 17.0791C60.9381 13.4835 64.8319 11.5095 68.6903 12.3379C70.4248 12.5141 71.9646 11.2451 72.1416 9.51778C72.3186 7.79049 71.0443 6.25707 69.3097 6.08082C62.5487 4.97041 55.9115 8.70701 53.3805 15.0522ZM43.7522 22.3315C45.9646 22.3315 48.1416 22.9308 50.0708 24.0412C51.9823 22.9308 54.1593 22.3315 56.3894 22.3315C63.3451 22.3139 68.9912 27.9188 69.0089 34.8456C69.0266 39.3929 66.5664 43.5878 62.5841 45.8086C62.6549 46.355 62.6903 46.919 62.6903 47.4654C62.6903 54.4098 57.0443 60.0323 50.0708 60.0323C43.0974 60.0323 37.4513 54.4098 37.4513 47.4654C37.4513 46.919 37.4867 46.355 37.5575 45.8086C31.4867 42.4069 29.3451 34.7751 32.7434 28.7295C34.9912 24.7814 39.2036 22.3315 43.7522 22.3315ZM47.9646 30.2629C46.8142 29.223 45.3274 28.6238 43.7699 28.6238C40.3009 28.6062 37.469 31.4086 37.469 34.8632C37.4513 37.7009 39.3805 40.2037 42.1416 40.944C43.823 41.4022 44.8142 43.1295 44.354 44.8039C44.3186 44.9273 44.2832 45.0331 44.2301 45.1565C42.9027 48.3643 44.4425 52.0304 47.6637 53.3523C50.885 54.6742 54.5664 53.1408 55.8938 49.933C56.531 48.3995 56.531 46.6899 55.8938 45.1565C55.239 43.5525 56.0354 41.7195 57.646 41.0673C57.7522 41.0145 57.8761 40.9792 58 40.944C61.3628 40.0627 63.3628 36.6257 62.4602 33.2945C61.5752 29.9457 58.1239 27.954 54.7788 28.8529C53.8053 29.1173 52.9027 29.5932 52.1593 30.2629C50.9735 31.3205 49.1505 31.3205 47.9646 30.2629ZM84.7788 22.3315C84.7611 26.4558 82.0531 30.0867 78.1062 31.2852C78.4956 34.5636 78.6195 37.8771 78.4779 41.1731C78.4779 56.7893 65.7699 69.462 50.0708 69.462C34.3717 69.462 21.6637 56.8069 21.6637 41.1907C21.5044 37.8948 21.646 34.5812 22.0531 31.3028C17.062 29.8047 14.2478 24.5523 15.7522 19.5819C17.2567 14.6115 22.531 11.8091 27.5221 13.3073C28.6903 13.6598 29.7876 14.2414 30.7434 15.0169C32.3009 13.554 34.0177 12.2674 35.8584 11.1746C37.3628 10.3109 39.292 10.8221 40.177 12.3202C41.0443 13.8184 40.531 15.7396 39.0266 16.6208C32.2478 20.6042 28.0531 27.8306 27.9823 35.674V41.1907C27.9823 53.3347 37.8761 63.1873 50.0708 63.1873C62.2655 63.1873 72.1593 53.3347 72.1593 41.1907V35.674C72.1239 30.3158 70.177 25.1516 66.6372 21.133C65.4867 19.8287 65.6106 17.8546 66.9204 16.6913C67.3274 16.3565 67.8053 16.1273 68.3186 16.0216C71.8053 12.1616 77.7699 11.8443 81.6637 15.3166C83.646 17.1144 84.7788 19.67 84.7788 22.3315ZM26.6372 19.7758C25.2036 18.7888 23.239 19.1237 22.2478 20.5513C21.8761 21.0801 21.6814 21.697 21.6814 22.3491C21.6814 23.6534 22.4779 24.8167 23.6991 25.2926C24.5133 23.3538 25.4867 21.5031 26.6372 19.7758ZM78.4602 22.3315C78.4602 20.6042 77.0443 19.1942 75.292 19.1942C74.6549 19.1942 74.0354 19.388 73.5044 19.7582C74.6726 21.4855 75.6637 23.3361 76.4425 25.2573C77.6637 24.7991 78.4602 23.6358 78.4602 22.3315Z" fill="#210066"/>
<path d="M6.51327 60.8431C6.51327 54.7623 7.23894 50.3559 7.23894 44.7334C7.23894 41.4551 5.71681 38.2296 0 38.1767V33.8233C5.69911 33.7704 7.23894 30.5273 7.23894 27.3723C7.23894 21.6441 6.51327 17.2377 6.51327 11.1569C6.51327 2.48519 9.66372 0 16.3363 0H20.0885V3.93048H17.8938C13.3451 3.93048 12.1593 6.15128 12.1593 11.5623C12.1593 16.6208 12.6018 21.0448 12.6018 26.7378C12.6018 32.1665 11.2389 34.8279 7.57522 35.8326V36.1674C11.2389 37.1721 12.6018 39.9393 12.6018 45.2622C12.6018 50.9728 12.1593 55.3792 12.1593 60.4377C12.1593 65.8487 13.3451 68.0695 17.8938 68.0695H20.0885V72H16.3363C9.66372 72 6.51327 69.5148 6.51327 60.8431Z" fill="#210066"/>
<path d="M79.8938 68.0695H82.0885C86.6372 68.0695 87.823 65.8487 87.823 60.4377C87.823 55.3792 87.3805 50.9552 87.3805 45.2622C87.3805 39.9393 88.7434 37.1721 92.4071 36.1674V35.8326C88.7434 34.8279 87.3805 32.1665 87.3805 26.7378C87.3805 21.0272 87.823 16.6208 87.823 11.5623C87.823 6.15128 86.6372 3.93048 82.0885 3.93048H79.8938V0H83.6637C90.3363 0 93.4867 2.48519 93.4867 11.1569C93.4867 17.2377 92.7611 21.6441 92.7611 27.3723C92.7611 30.5449 94.2832 33.7704 100 33.8233V38.1767C94.3009 38.2296 92.7611 41.4727 92.7611 44.7334C92.7611 50.3559 93.4867 54.7623 93.4867 60.8431C93.4867 69.5148 90.3363 72 83.6637 72H79.9115V68.0695H79.8938Z" fill="#210066"/>
</svg>
